<svg width="14.000000" height="25.000000" viewBox="0 0 14 25" fill="none" xmlns="http://www.w3.org/2000/svg" xmlns:xlink="http://www.w3.org/1999/xlink">
	<desc>
			Created with Pixso.
	</desc>
	<defs/>
	<path d="M8.64 25L4.69 25C4.03 25 3.5 24.45 3.5 23.78L3.5 14.75L1.19 14.75C0.53 14.75 0 14.21 0 13.54L0 9.67C0 9 0.53 8.46 1.19 8.46L3.5 8.46L3.5 6.52C3.5 4.6 4.09 2.96 5.22 1.79C6.35 0.62 7.93 0 9.79 0L12.8 0C13.46 0 14 0.55 14 1.21L14 4.81C14 5.47 13.46 6.02 12.8 6.02L10.77 6.02C10.15 6.02 9.99 6.14 9.96 6.18C9.91 6.25 9.84 6.43 9.84 6.93L9.84 8.46L12.65 8.46C12.86 8.46 13.06 8.51 13.24 8.61C13.62 8.82 13.85 9.23 13.85 9.67L13.85 13.54C13.85 14.21 13.32 14.75 12.66 14.75L9.84 14.75L9.84 23.78C9.84 24.45 9.3 25 8.64 25ZM4.94 23.53L8.39 23.53L8.39 14.1C8.39 13.65 8.75 13.29 9.19 13.29L12.41 13.29L12.41 9.92L9.19 9.92C8.75 9.92 8.39 9.56 8.39 9.11L8.39 6.93C8.39 6.35 8.45 5.7 8.88 5.21C9.39 4.62 10.2 4.55 10.77 4.55L12.55 4.55L12.55 1.47L9.79 1.46C6.8 1.46 4.94 3.4 4.94 6.52L4.94 9.11C4.94 9.56 4.58 9.92 4.14 9.92L1.44 9.92L1.44 13.29L4.14 13.29C4.58 13.29 4.94 13.65 4.94 14.1L4.94 23.53ZM12.8 1.47L12.8 1.47L12.8 1.47Z" fill="#FFFFFF" fill-opacity="1.000000" fill-rule="nonzero"/>
</svg>
