<svg width="26.000000" height="25.000000" viewBox="0 0 26 25" fill="none" xmlns="http://www.w3.org/2000/svg" xmlns:xlink="http://www.w3.org/1999/xlink">
	<desc>
			Created with Pixso.
	</desc>
	<defs/>
	<path d="M18.39 -0.96L6.82 -0.96C3.06 -0.96 0 2.11 0 5.87L0 17.44C0 21.2 3.06 24.27 6.82 24.27L18.39 24.27C22.16 24.27 25.22 21.2 25.22 17.44L25.22 5.87C25.22 2.11 22.16 -0.96 18.39 -0.96L18.39 -0.96ZM23.74 17.44C23.74 20.39 21.34 22.79 18.39 22.79L6.82 22.79C3.87 22.79 1.47 20.39 1.47 17.44L1.47 5.87C1.47 2.92 3.87 0.52 6.82 0.52L18.39 0.52C21.34 0.52 23.74 2.92 23.74 5.87L23.74 17.44Z" fill="#FFFFFF" fill-opacity="1.000000" fill-rule="nonzero"/>
	<path d="M12.61 4.76C8.8 4.76 5.71 7.85 5.71 11.66C5.71 15.46 8.8 18.55 12.61 18.55C16.41 18.55 19.5 15.46 19.5 11.66C19.5 7.85 16.41 4.76 12.61 4.76ZM12.61 17.07C9.62 17.07 7.19 14.64 7.19 11.66C7.19 8.67 9.62 6.24 12.61 6.24C15.59 6.24 18.02 8.67 18.02 11.66C18.02 14.64 15.59 17.07 12.61 17.07Z" fill="#FFFFFF" fill-opacity="1.000000" fill-rule="nonzero"/>
	<path d="M19.67 2.31C18.54 2.31 17.63 3.22 17.63 4.35C17.63 5.47 18.54 6.39 19.67 6.39C20.79 6.39 21.71 5.47 21.71 4.35C21.71 3.22 20.79 2.31 19.67 2.31ZM19.67 4.91C19.36 4.91 19.11 4.66 19.11 4.35C19.11 4.04 19.36 3.79 19.67 3.79C19.98 3.79 20.23 4.04 20.23 4.35C20.23 4.66 19.98 4.91 19.67 4.91Z" fill="#FFFFFF" fill-opacity="1.000000" fill-rule="nonzero"/>
</svg>
