<svg width="197.000000" height="53.000000" viewBox="0 0 197 53" fill="none" xmlns="http://www.w3.org/2000/svg" xmlns:xlink="http://www.w3.org/1999/xlink">
	<desc>
			Created with Pixso.
	</desc>
	<defs>
		<clipPath id="clip8_12">
			<rect width="197.000000" height="53.000000" fill="white" fill-opacity="0"/>
		</clipPath>
	</defs>
	<rect width="197.000000" height="53.000000" fill="#FFFFFF" fill-opacity="0"/>
	<g clip-path="url(#clip8_12)">
		<path d="M6.87 13.84L10.8 13.84L17.02 43L13.17 43L11.84 35.65L5.9 35.65L4.5 43L0.68 43L6.87 13.84ZM11.3 32.74L8.85 19.6L6.44 32.74L11.3 32.74ZM27.51 43.32C25.47 43.32 23.87 42.91 22.72 42.1C21.59 41.28 20.81 40.14 20.38 38.68C19.95 37.21 19.73 35.38 19.73 33.17L19.73 13.84L23.62 13.84L23.62 33.35C23.62 35.56 23.87 37.24 24.37 38.39C24.9 39.54 25.95 40.12 27.51 40.12C29.07 40.12 30.1 39.54 30.6 38.39C31.13 37.24 31.39 35.56 31.39 33.35L31.39 13.84L35.25 13.84L35.25 33.17C35.25 35.38 35.03 37.21 34.6 38.68C34.17 40.14 33.39 41.28 32.26 42.1C31.13 42.91 29.55 43.32 27.51 43.32ZM42.73 16.86L37.8 16.86L37.8 13.84L51.59 13.84L51.59 16.86L46.8 16.86L46.8 43L42.73 43L42.73 16.86ZM61.85 43.32C59 43.32 56.94 42.52 55.7 40.91C54.47 39.28 53.86 36.92 53.86 33.85L53.86 22.8C53.86 19.78 54.48 17.48 55.73 15.92C56.98 14.36 59.02 13.58 61.85 13.58C64.68 13.58 66.71 14.38 67.94 15.96C69.18 17.52 69.81 19.8 69.81 22.8L69.81 33.89C69.81 36.91 69.18 39.24 67.94 40.87C66.69 42.5 64.66 43.32 61.85 43.32ZM61.85 40.12C63.36 40.12 64.38 39.67 64.91 38.78C65.44 37.9 65.7 36.55 65.7 34.75L65.7 21.97C65.7 20.2 65.44 18.89 64.91 18.05C64.38 17.18 63.36 16.75 61.85 16.75C60.32 16.75 59.28 17.18 58.76 18.05C58.23 18.89 57.96 20.2 57.96 21.97L57.96 34.75C57.96 36.55 58.23 37.9 58.76 38.78C59.28 39.67 60.32 40.12 61.85 40.12ZM82.03 13.84L93.34 13.84L93.34 16.86L86.1 16.86L86.1 26.51L91.97 26.51L91.97 29.39L86.1 29.39L86.1 40.08L93.41 40.08L93.41 43L82.03 43L82.03 13.84ZM100.98 27.73L95 13.84L98.78 13.84L103.21 24.13L107.24 13.84L111.02 13.84L104.9 28.06L111.31 43L107.53 43L102.78 32.02L98.67 43L94.89 43L100.98 27.73ZM114.06 13.84L121.3 13.84C123.82 13.84 125.64 14.52 126.77 15.89C127.92 17.26 128.5 19.26 128.5 21.9C128.5 24.28 127.88 26.12 126.66 27.44C125.44 28.76 123.66 29.42 121.33 29.42L118.13 29.42L118.13 43L114.06 43L114.06 13.84ZM120 26.51C121.2 26.51 122.12 26.38 122.77 26.11C123.44 25.85 123.92 25.39 124.21 24.74C124.5 24.1 124.64 23.16 124.64 21.94C124.64 20.45 124.54 19.36 124.32 18.66C124.1 17.96 123.67 17.47 123.02 17.18C122.4 16.9 121.4 16.75 120.04 16.75L118.13 16.75L118.13 26.51L120 26.51ZM131.36 13.84L137.23 13.84C140.18 13.84 142.34 14.45 143.71 15.67C145.1 16.87 145.79 18.84 145.79 21.58C145.79 25.32 144.59 27.59 142.19 28.38L146.33 43L142.41 43L138.59 29.32L135.42 29.32L135.42 43L131.36 43L131.36 13.84ZM136.97 26.4C138.73 26.4 139.97 26.05 140.72 25.36C141.49 24.66 141.87 23.4 141.87 21.58C141.87 20.37 141.74 19.44 141.47 18.77C141.21 18.07 140.74 17.57 140.07 17.26C139.4 16.92 138.45 16.75 137.23 16.75L135.42 16.75L135.42 26.4L136.97 26.4ZM150.03 13.84L161.33 13.84L161.33 16.86L154.09 16.86L154.09 26.51L159.96 26.51L159.96 29.39L154.09 29.39L154.09 40.08L161.4 40.08L161.4 43L150.03 43L150.03 13.84ZM171.56 43.32C169.11 43.32 167.24 42.56 165.95 41.05C164.67 39.54 163.97 37.46 163.82 34.82L167.42 33.85C167.54 35.72 167.9 37.24 168.5 38.39C169.13 39.54 170.15 40.12 171.56 40.12C172.62 40.12 173.41 39.83 173.94 39.25C174.49 38.65 174.77 37.8 174.77 36.7C174.77 35.5 174.51 34.5 174.01 33.71C173.51 32.91 172.7 32.04 171.6 31.08L166.7 26.76C165.72 25.9 165 24.97 164.54 23.99C164.11 22.98 163.89 21.76 163.89 20.32C163.89 18.18 164.51 16.52 165.73 15.35C166.95 14.17 168.62 13.58 170.73 13.58C173.04 13.58 174.78 14.2 175.95 15.42C177.13 16.64 177.84 18.54 178.08 21.11L174.62 22.04C174.5 20.34 174.17 19.03 173.61 18.12C173.09 17.18 172.13 16.71 170.73 16.71C169.7 16.71 168.91 16.99 168.36 17.54C167.81 18.07 167.53 18.86 167.53 19.92C167.53 20.78 167.67 21.52 167.96 22.12C168.25 22.69 168.74 23.28 169.44 23.88L174.37 28.2C175.64 29.33 176.65 30.55 177.39 31.87C178.16 33.19 178.55 34.69 178.55 36.37C178.55 38.51 177.9 40.2 176.6 41.45C175.31 42.7 173.63 43.32 171.56 43.32ZM188.58 43.32C186.13 43.32 184.26 42.56 182.96 41.05C181.69 39.54 180.98 37.46 180.84 34.82L184.44 33.85C184.56 35.72 184.92 37.24 185.52 38.39C186.14 39.54 187.16 40.12 188.58 40.12C189.63 40.12 190.43 39.83 190.95 39.25C191.51 38.65 191.78 37.8 191.78 36.7C191.78 35.5 191.53 34.5 191.03 33.71C190.52 32.91 189.72 32.04 188.61 31.08L183.72 26.76C182.73 25.9 182.01 24.97 181.56 23.99C181.13 22.98 180.91 21.76 180.91 20.32C180.91 18.18 181.52 16.52 182.75 15.35C183.97 14.17 185.64 13.58 187.75 13.58C190.05 13.58 191.79 14.2 192.97 15.42C194.15 16.64 194.85 18.54 195.09 21.11L191.64 22.04C191.52 20.34 191.18 19.03 190.63 18.12C190.1 17.18 189.14 16.71 187.75 16.71C186.72 16.71 185.93 16.99 185.37 17.54C184.82 18.07 184.55 18.86 184.55 19.92C184.55 20.78 184.69 21.52 184.98 22.12C185.27 22.69 185.76 23.28 186.45 23.88L191.39 28.2C192.66 29.33 193.67 30.55 194.41 31.87C195.18 33.19 195.56 34.69 195.56 36.37C195.56 38.51 194.91 40.2 193.62 41.45C192.32 42.7 190.64 43.32 188.58 43.32Z" fill="#FFFFFF" fill-opacity="1.000000" fill-rule="nonzero"/>
		<path d="M0 5.5L80 5.5" stroke="#FFFFFF" stroke-opacity="1.000000" stroke-width="3.000000"/>
		<path d="M0 48.5L80 48.5" stroke="#FFFFFF" stroke-opacity="1.000000" stroke-width="3.000000"/>
	</g>
</svg>
