<svg width="25.000000" height="19.000000" viewBox="0 0 25 19" fill="none" xmlns="http://www.w3.org/2000/svg" xmlns:xlink="http://www.w3.org/1999/xlink">
	<desc>
			Created with Pixso.
	</desc>
	<defs/>
	<path d="M24.79 0.32C24.54 0.03 24.14 -0.08 23.78 0.05L0.84 8.29C0.39 8.46 0.06 8.86 0 9.34C-0.05 9.82 0.16 10.29 0.56 10.55L3.83 12.78C4.15 12.99 4.56 13.02 4.9 12.84L12.01 9.11L6.47 13.23C6.21 13.42 6.05 13.73 6.05 14.05L6.05 17.86C6.05 18.26 6.27 18.62 6.62 18.8C6.97 18.99 7.39 18.97 7.72 18.75L10.21 17.11L12.66 18.77C12.88 18.92 13.13 19 13.39 19C13.48 19 13.56 18.99 13.65 18.97C13.99 18.9 14.3 18.69 14.49 18.39L24.86 1.37C25.06 1.04 25.03 0.62 24.79 0.32ZM13.34 17.46L10.8 15.74C10.62 15.62 10.42 15.56 10.22 15.56C10.02 15.56 9.82 15.62 9.64 15.74L7.52 17.14L7.52 14.26L17.3 7C17.74 6.67 17.85 6.08 17.56 5.62C17.27 5.16 16.68 5.01 16.2 5.26L4.45 11.43L1.67 9.55L22.79 1.95L13.34 17.46Z" fill="#FFFFFF" fill-opacity="1.000000" fill-rule="nonzero"/>
</svg>
