<svg width="26.000000" height="26.000000" viewBox="0 0 26 26" fill="none" xmlns="http://www.w3.org/2000/svg" xmlns:xlink="http://www.w3.org/1999/xlink">
	<desc>
			Created with Pixso.
	</desc>
	<defs/>
	<path d="M21.64 3.58C19.33 1.27 16.25 0 12.99 0C12.99 0 12.99 0 12.99 0C11.37 0 9.79 0.31 8.3 0.93C6.81 1.54 5.48 2.43 4.34 3.58C2.03 5.89 0.75 8.96 0.75 12.23C0.75 14.18 1.22 16.11 2.12 17.84L0.06 23.71C-0.09 24.12 0.02 24.58 0.33 24.89C0.55 25.1 0.83 25.22 1.13 25.22C1.25 25.22 1.38 25.2 1.5 25.15L7.38 23.1C9.1 23.99 11.04 24.46 12.99 24.46C16.25 24.46 19.33 23.19 21.64 20.88C23.95 18.57 25.22 15.49 25.22 12.23C25.22 8.96 23.95 5.89 21.64 3.58ZM20.59 19.83C18.56 21.86 15.86 22.98 12.99 22.98C11.23 22.98 9.48 22.54 7.94 21.72C7.66 21.57 7.33 21.55 7.03 21.65L1.69 23.52L3.56 18.18C3.67 17.89 3.64 17.55 3.49 17.27C2.67 15.73 2.23 13.98 2.23 12.23C2.23 9.35 3.35 6.65 5.38 4.62C7.41 2.59 10.11 1.47 12.99 1.47L12.99 1.47C15.86 1.47 18.56 2.59 20.59 4.62C22.62 6.65 23.74 9.35 23.74 12.23C23.74 15.1 22.62 17.8 20.59 19.83Z" fill="#FFFFFF" fill-opacity="1.000000" fill-rule="nonzero"/>
	<path d="M17.53 13.32C16.97 12.76 16.05 12.76 15.49 13.32L14.88 13.94C13.35 13.1 12.11 11.87 11.28 10.34L11.89 9.72C12.46 9.16 12.46 8.24 11.89 7.68L10.24 6.02C9.67 5.46 8.76 5.46 8.19 6.02L6.87 7.35C6.11 8.11 6.07 9.42 6.76 11.03C7.36 12.43 8.46 13.97 9.85 15.36C11.25 16.75 12.79 17.85 14.19 18.45C14.95 18.78 15.65 18.94 16.25 18.94C16.92 18.94 17.47 18.74 17.86 18.35L19.19 17.02L19.19 17.02C19.46 16.75 19.61 16.38 19.61 16C19.61 15.61 19.46 15.25 19.19 14.98L17.53 13.32ZM16.82 17.3C16.6 17.52 15.93 17.59 14.77 17.09C13.54 16.57 12.16 15.58 10.9 14.31C9.63 13.05 8.65 11.68 8.12 10.45C7.62 9.28 7.7 8.61 7.91 8.4L9.22 7.09L10.82 8.7L10.05 9.47C9.7 9.82 9.62 10.35 9.84 10.79C10.86 12.77 12.44 14.36 14.43 15.37C14.87 15.59 15.39 15.51 15.74 15.16L16.51 14.39L18.12 16L16.82 17.3Z" fill="#FFFFFF" fill-opacity="1.000000" fill-rule="nonzero"/>
</svg>
